<svg xmlns="http://www.w3.org/2000/svg" viewBox="0 0 353.58 288.57"><defs><style>.a{fill:#bc8856;}.b{fill:#ce9c6a;}.c{fill:#efcd9d;}.d{fill:#eba53b;}.e{fill:#fed590;}.f{fill:#ffc365;}.g{fill:#6e340d;}.h{fill:#fff2dc;}.i{fill:#ebbc78;}.j{fill:#b6342e;}.k{fill:#871d19;}.l{fill:#3e0001;}.m{fill:#feb100;}.n{fill:#ffc704;}.o{fill:#ffe783;}.p{fill:#6d1f20;}.q{fill:#ebae52;}.r{fill:#ecfcfe;}.s{fill:#cdc9c2;}.t{fill:#272727;}.u{fill:#1c0d02;}.v{fill:#fff;}.w{fill:#daccc2;}.x{fill:#221b0e;}.y{fill:#f3f3f3;}.z{fill:#ffd72d;}.aa{fill:#fee882;}.ab{fill:#d7a874;}.ac{fill:#bd8963;}.ad{fill:#ebbf88;}.ae{fill:#c69664;}.af{fill:#bb8760;}.ag{fill:#ebc089;}</style></defs><polygon class="a" points="42.59 93.08 180.79 76.69 180.79 214.41 43.59 252.26 42.59 93.08"/><polygon class="b" points="180.79 76.69 296.79 97.05 296.79 254.88 180.79 214.41 180.79 76.69"/><polygon class="c" points="180.79 76.69 147.23 21.48 7.83 35.18 42.59 93.08 180.79 76.69"/><polygon class="c" points="180.79 76.69 214.97 21.48 339.88 37.14 296.79 97.05 180.79 76.69"/><path class="d" d="M208.84,94a68.62,68.62,0,0,0-3.71-8.28,1.09,1.09,0,0,0-.1.11c-3.08,3.52-8.36,6.12-15.75,7.8.05,1.27,0,2.7,0,2.7,14.89,7.73,19.12,25.91,19.12,25.91l7.35-1.83-.44,0A119.19,119.19,0,0,0,208.84,94Z"/><path class="e" d="M134.63,88.76c-.44,5.13-2.51,28.8-3.84,34.17l5.76,1.47.83-34.24C136.35,89.68,135.44,89.21,134.63,88.76Z"/><path class="f" d="M139.42,91c-.73-.29-1.41-.59-2-.88l-.83,34.24s4.82,1.18,8,1.68C138.71,120.87,139.28,95.4,139.42,91Z"/><path class="f" d="M175.73,127.78h0Z"/><path class="f" d="M189.25,96.32c-.25,21.69-11.81,31.31-11.81,31.31s20.27-2.17,30.93-5.4C208.37,122.23,204.14,104.05,189.25,96.32Z"/><path class="g" d="M133.48,88.09c-.29,3.45-2.54,29.53-3.89,34.69l1.16.3s0-.1,0-.15c1.33-5.37,3.4-29,3.84-34.17C134.22,88.53,133.84,88.31,133.48,88.09Z"/><path class="h" d="M189.25,96.32A19.84,19.84,0,0,0,184,94.6q-4.22.63-9.15,1c-2.23.14-4.7.24-7.33.24-1.82,0-3.73-.05-5.69-.16a3.57,3.57,0,0,1-.47,0h-.26l-3.06-.21a1.94,1.94,0,0,1-.32.7,8.35,8.35,0,1,1-3.3,0,1.93,1.93,0,0,1-.35-1c-1.22-.11-2.42-.23-3.43-.35a3.76,3.76,0,0,1-2.1-.93A57.25,57.25,0,0,1,140,91.27l-.57-.23c-.14,4.36-.71,29.83,5.14,35a138.8,138.8,0,0,0,31.17,1.7h0c.56,0,1.13-.09,1.69-.15C177.44,127.63,189,118,189.25,96.32Z"/><path class="i" d="M189.25,96.32s.08-1.43,0-2.7q-2.47.55-5.25,1A19.84,19.84,0,0,1,189.25,96.32Z"/><path class="j" d="M174.8,94.35c7.1-.45,15.73-1.63,22.25-4.49a5.06,5.06,0,0,0,.9-3.21,51.86,51.86,0,0,1-13.34,4.17,95,95,0,0,1-16.86,1.42c-.86,0-1.69,0-2.47,0A5.18,5.18,0,0,1,164,94.53C168,94.66,171.62,94.56,174.8,94.35Z"/><path class="j" d="M136,88.11a45.31,45.31,0,0,0,4.57,2.08,55.88,55.88,0,0,0,7,2.2,5.72,5.72,0,0,1-.41-1.6A61.45,61.45,0,0,1,136,88.11Z"/><path class="g" d="M210,93.57a65.11,65.11,0,0,0-4-8.9c-.24.34-.5.69-.8,1A68.62,68.62,0,0,1,208.84,94a119.19,119.19,0,0,1,6.44,26.46l.44,0,.75-.1A119.61,119.61,0,0,0,210,93.57Z"/><path class="k" d="M197.05,89.86A19.9,19.9,0,0,0,204.13,85a9.53,9.53,0,0,0,2.35-4.61A27.66,27.66,0,0,1,198,86.65,5.06,5.06,0,0,1,197.05,89.86Z"/><path class="l" d="M137.38,90.16c.63.29,1.31.59,2,.88l.57.23a57.25,57.25,0,0,0,8.58,2.59,4,4,0,0,1-.44-.47,4.12,4.12,0,0,1-.56-1,55.88,55.88,0,0,1-7-2.2A45.31,45.31,0,0,1,136,88.11a41.2,41.2,0,0,1-6.14-2.72,22,22,0,0,0,3.67,2.7c.36.22.74.44,1.15.67C135.44,89.21,136.35,89.68,137.38,90.16Z"/><path class="l" d="M204.13,85a19.9,19.9,0,0,1-7.08,4.83c-6.52,2.86-15.15,4-22.25,4.49-3.18.21-6.85.31-10.78.18a4.06,4.06,0,0,1-1.11.8,3.55,3.55,0,0,1-1,.3c2,.11,3.87.16,5.69.16,2.63,0,5.1-.1,7.33-.24q4.94-.31,9.15-1,2.78-.42,5.25-1c7.39-1.68,12.67-4.28,15.75-7.8a1.09,1.09,0,0,1,.1-.11c.3-.35.56-.7.8-1a9.59,9.59,0,0,0,1.87-5.85c-.41.55-.85,1.08-1.32,1.6A9.53,9.53,0,0,1,204.13,85Z"/><path class="m" d="M156.11,95.79a.81.81,0,0,0,.71-.43l-1.48-.12A.83.83,0,0,0,156.11,95.79Z"/><path class="n" d="M150.41,93.1c2,.6,9.1.72,11.08.74a1.73,1.73,0,0,0,1.34-.61,5.35,5.35,0,0,0,.64-1.07c-2.17-.09-3.93-.21-5.14-.32-1-.09-2.08-.17-3.23-.24q-3.33-.19-6.39-.6A2.47,2.47,0,0,0,150.41,93.1Z"/><path class="o" d="M150.81,93.59c3.33.41,8.65.76,10.4.87a2.4,2.4,0,0,0,1.18-.21A3.28,3.28,0,0,0,164,92.18l-.56,0a5.35,5.35,0,0,1-.64,1.07,1.73,1.73,0,0,1-1.34.61c-2,0-9.06-.14-11.08-.74a2.47,2.47,0,0,1-1.7-2.1l-.31,0a3.82,3.82,0,0,0,.68,1.7A2.45,2.45,0,0,0,150.81,93.59Z"/><path class="p" d="M164,94.53a5.18,5.18,0,0,0,1.26-2.32l-1.25,0a3.28,3.28,0,0,1-1.64,2.07,2.4,2.4,0,0,1-1.18.21c-1.75-.11-7.07-.46-10.4-.87a2.45,2.45,0,0,1-1.73-.93,3.82,3.82,0,0,1-.68-1.7l-1.24-.17a5.72,5.72,0,0,0,.41,1.6,4.12,4.12,0,0,0,.56,1,4,4,0,0,0,.44.47,3.76,3.76,0,0,0,2.1.93c1,.12,2.21.24,3.43.35a1.93,1.93,0,0,0,.35,1,8.35,8.35,0,1,0,3.3,0,1.94,1.94,0,0,0,.32-.7l3.06.21h.26a4.05,4.05,0,0,0,1.52-.34A4.06,4.06,0,0,0,164,94.53Zm-7.2.83a.81.81,0,0,1-.71.43.83.83,0,0,1-.77-.55Zm1,2a7.22,7.22,0,0,1,4.56,3.69A7.15,7.15,0,0,1,156,111.45a7.13,7.13,0,0,1-7.06-6,8.32,8.32,0,0,1-.09-1.12A7.16,7.16,0,0,1,156,97.16,7.26,7.26,0,0,1,157.82,97.4Z"/><path class="f" d="M134,58.9a5,5,0,0,1,3.34-1.49c1.35-1,4.81-3,10.84-2.83,8,.19,12.71,5.79,13,8.89,0,0,27-9.65,42.44-2.32,0,0-2.14-21.29-9.19-31.56-6.59-9.58-6.38-6.44-6.93-9.5a6.24,6.24,0,0,1,0,1.1c-6.21-4.63-13.93-6.61-21.67-6.7.39.16.63.37.67.61.22,1.2-4,3-9.51,4s-10.08.84-10.3-.36a.72.72,0,0,1,.18-.54c-8.07,3.94-15.73,12.54-19.14,16.7-2.83,5.62-6.5,13.14-8.62,18.37C120.8,52.79,125.13,52.66,134,58.9ZM163.93,39c.27-1.48,2.72-2.26,5.47-1.75s4.76,2.12,4.49,3.59-2.72,2.26-5.47,1.75S163.66,40.43,163.93,39ZM158.45,54c.51-.53,1-1,1.54-1.48,9.64-13.93,17-4,19.18-.31a14.57,14.57,0,0,1,1.64,2.13l.26.42-.37.33a14.7,14.7,0,0,1-10.09,4,18.08,18.08,0,0,1-4.78-.68,23.31,23.31,0,0,1-7.31-3.48l-.55-.41Zm-22-17.76c2.06-.66,4.13,0,4.62,1.56s-.8,3.29-2.86,4-4.14,0-4.63-1.56S134.42,36.93,136.49,36.27Zm-9.66,15.12c.35-.35.69-.68,1-1,1.21-2.56,4.19-7.58,8.62-6.68,5,1,5.62,5.94,5.7,7.52a13.23,13.23,0,0,1,.69,2.25l.06.33-.25.23a10.16,10.16,0,0,1-6.81,2.88c-.24,0-.47,0-.71,0-4.82-.38-8.23-4.52-8.37-4.7l-.34-.41Z"/><path class="f" d="M132.75,26.11c-.85-13.88,3.43-20.69,3.43-20.69,3.18,2.9,4.57,13.58,4.57,13.58l-.11.07c2.53-1.65,4.38-2.42,4.9-3.19,1.07-1.59-3.72-9.16-5.74-12.19l-2.07-2.22c-1.6,1-8,6.36-5.93,25.41l0,.18-.09.16-.28.54a37.81,37.81,0,0,1,3-3.56C133.36,25.33,132.75,26.11,132.75,26.11Z"/><path class="f" d="M186.3,17.38a3.51,3.51,0,0,1,1.12,1.95h0C186.54,14.24,194.16,6,196.05,4l-.25-.23-2.41,2.15C190.26,9.89,185.26,16.53,186.3,17.38Z"/><path class="d" d="M187.42,19.33h0c.06.27.1.52.13.76.55,3.06.34-.08,6.93,9.5,7.05,10.27,9.19,31.56,9.19,31.56s5.23,2.6,4,9.53a22.58,22.58,0,0,1-8,13.64,21.88,21.88,0,0,0,10-11.63c0-.11,3.65-11.09-1.37-20.8a63.78,63.78,0,0,1-4.45-11.11c-1.15-3.61-2-6.46-4.71-10.08h0a33.47,33.47,0,0,1,1.62,5.06S194,26.06,190.73,23.66s-2.48-4.73-2.48-4.73,3.31-12.41,7.41-12.51c3.94-.09,2.53,20.15,2.41,21.81.37.74.7,1.47,1,2.16l0-.12a90.81,90.81,0,0,0,.63-11.86c-.13-7.33-1.39-12.27-3.65-14.39C194.16,6,186.54,14.24,187.42,19.33Z"/><path class="h" d="M136.18,5.42s-4.28,6.81-3.43,20.69c0,0,.61-.78,1.7-1.91a33.86,33.86,0,0,1,5-4.31h0l.28-.2.77-.51.17-.11.11-.07S139.36,8.32,136.18,5.42Z"/><path class="e" d="M147,18.17a.72.72,0,0,0-.18.54c.22,1.2,4.83,1.36,10.3.36s9.73-2.77,9.51-4c0-.24-.28-.45-.67-.61,7.74.09,15.46,2.07,21.67,6.7a6.24,6.24,0,0,0,0-1.1c0-.24-.07-.49-.13-.76a3.51,3.51,0,0,0-1.12-1.95c-1-.85,4-7.49,7.09-11.44l-10.7,9.57-.34-.11c-.17-.06-17.51-5.89-32.15-1.3l-.36.11-.25-.27c-.08-.07-5.92-6.15-9.79-10.25,2,3,6.81,10.6,5.74,12.19-.52.77-2.37,1.54-4.9,3.19l-.17.11-.77.51-.28.2h0a33.86,33.86,0,0,0-5,4.31,37.81,37.81,0,0,0-3,3.56c-.57,1.1-1.95,3.76-3.64,7.11C131.22,30.71,138.88,22.11,147,18.17Z"/><path class="i" d="M158.43,90.64c5.48.48,27.55,1.8,41.27-6.32a22.58,22.58,0,0,0,8-13.64c1.2-6.93-4-9.53-4-9.53S207.77,89,155.82,88.3c0,0-28.27-1-36.75-16a22.18,22.18,0,0,0,3.56,5.86c6.08,7.22,17,11.35,32.54,12.29C156.33,90.48,157.4,90.55,158.43,90.64Z"/><path class="q" d="M198.06,28.34s-5.5-6.7-9.81-9.41c0,0-.82,2.33,2.48,4.73s10.06,12.09,10.06,12.09a33.47,33.47,0,0,0-1.62-5.06L199,30.5v-.11c-.28-.69-.61-1.42-1-2.16Z"/><path class="h" d="M155.82,88.3c52,.7,47.85-27.15,47.85-27.15-15.42-7.33-42.44,2.32-42.44,2.32-.3-3.1-5-8.7-13-8.89-6-.14-9.49,1.84-10.84,2.83a6,6,0,0,1,.85,0c.64,0,1.31-.07,2-.07,3.42,0,6.26.5,6.14,2.8s-2.55,4.71-5.74,4.81a30,30,0,0,0,.34,5.7,1.5,1.5,0,0,0,.67,1c4.2,2.6,9.41.4,9.41.4a9,9,0,0,1-5.94,1.62c-5.31.48-7.34-.25-8.07-.71a2.92,2.92,0,0,1-.88-.51,3.6,3.6,0,0,0,.5.16c2.64-.46,3.35-6.69,3.35-6.69h0c0-.4,0-.74,0-1a6.7,6.7,0,0,1-5.68-3.67,14.35,14.35,0,0,0-.54,11,12.94,12.94,0,0,1-1.32-10.46A6.52,6.52,0,0,1,134,58.9c-8.91-6.24-13.24-6.11-14.85-5.66a24.26,24.26,0,0,0-1.7,5.28,27.36,27.36,0,0,0,1.58,13.74C127.55,87.28,155.82,88.3,155.82,88.3Z"/><path class="g" d="M147.16,90.79l1.24.17.31,0q3.06.41,6.39.6c1.15.07,2.21.15,3.23.24,1.21.11,3,.23,5.14.32l.56,0,1.25,0c.78,0,1.61,0,2.47,0a95,95,0,0,0,16.86-1.42A51.86,51.86,0,0,0,198,86.65a27.66,27.66,0,0,0,8.53-6.23c.47-.52.91-1,1.32-1.6a21.36,21.36,0,0,0,3-5.74c.16-.47,3.83-11.57-1.43-21.74A62.84,62.84,0,0,1,205,40.42a31.83,31.83,0,0,0-4.74-10.24,92.35,92.35,0,0,0,.61-11.78c-.15-8.51-1.77-13.86-4.81-15.88l-.38-.26-13.3,11.89c-2.51-.79-18.41-5.46-32.21-1.3C148.69,11.28,141,3.26,138.29.31L138,0l-.39.16c-.38.16-9.38,4.21-7,26.66-1.27,2.41-13.71,26.25-14.3,31.56-.34,3.08-1.38,12.44,5.42,20.51a28.35,28.35,0,0,0,8.1,6.5A41.2,41.2,0,0,0,136,88.11,61.45,61.45,0,0,0,147.16,90.79ZM122.63,78.12a22.18,22.18,0,0,1-3.56-5.86,27.36,27.36,0,0,1-1.58-13.74,24.26,24.26,0,0,1,1.7-5.28c2.12-5.23,5.79-12.75,8.62-18.37,1.69-3.35,3.07-6,3.64-7.11l.28-.54.09-.16,0-.18c-2-19,4.33-24.39,5.93-25.41l2.07,2.22c3.87,4.1,9.71,10.18,9.79,10.25l.25.27.36-.11c14.64-4.59,32,1.24,32.15,1.3l.34.11,10.7-9.57,2.41-2.15.25.23c2.26,2.12,3.52,7.06,3.65,14.39a90.81,90.81,0,0,1-.63,11.86l0,.12v.11l.13.19h0c2.66,3.62,3.56,6.47,4.71,10.08a63.78,63.78,0,0,0,4.45,11.11c5,9.71,1.4,20.69,1.37,20.8a21.88,21.88,0,0,1-10,11.63c-13.72,8.12-35.79,6.8-41.27,6.32-1-.09-2.1-.16-3.26-.23C139.66,89.47,128.71,85.34,122.63,78.12Z"/><path class="i" d="M198.06,28.34v-.11c.12-1.66,1.53-21.9-2.41-21.81-4.1.1-7.41,12.51-7.41,12.51C192.56,21.64,198.06,28.34,198.06,28.34Z"/><path class="d" d="M137.62,46.32c2.46.74,3.84,3.1,4.56,4.91-.08-1.58-.75-6.52-5.7-7.52-4.43-.9-7.41,4.12-8.62,6.68C131.63,46.87,134.91,45.49,137.62,46.32Z"/><path class="r" d="M141.61,53.37a9.81,9.81,0,0,0-.32-1.06c-.18-.2-.39-.42-.62-.63a8.7,8.7,0,0,1-.3,2.62A11.45,11.45,0,0,0,141.61,53.37Z"/><path class="r" d="M133.46,55.34c-1.63-2.22.14-6,.14-6v0a12.87,12.87,0,0,0-4.34,1.38c-.39.35-.78.71-1.18,1.11A13.33,13.33,0,0,0,133.46,55.34Z"/><path class="s" d="M135.62,47.3c-1.83.15-4,1.3-6.35,3.43a12.87,12.87,0,0,1,4.34-1.38A4.52,4.52,0,0,1,135.62,47.3Z"/><path class="s" d="M141.29,52.31a11.37,11.37,0,0,0-.73-1.73,10,10,0,0,1,.11,1.1C140.9,51.89,141.11,52.11,141.29,52.31Z"/><path class="t" d="M138.44,50.44a3.27,3.27,0,0,0-1-.49c-2.59-.75-3.5.32-3.82,1.95s.05,3.75,2.38,3.66c1.66-.07,3-.48,3.43-2.07a2.86,2.86,0,0,0,.08-1.29h-.07C138.82,52.17,138.43,51.89,138.44,50.44Zm0,2.15a.58.58,0,1,1-.39-.72A.58.58,0,0,1,138.4,52.59Z"/><path class="u" d="M133.61,49.35v0a11.67,11.67,0,0,1,4.85.89s-.07-1.37,1-1.16a.68.68,0,0,1,.26.11,5,5,0,0,0-2.4-1.75,4.73,4.73,0,0,0-1.65-.16A4.52,4.52,0,0,0,133.61,49.35Z"/><path class="u" d="M140.22,51.12l.12.08a6.63,6.63,0,0,0,0-1l-.21-.35A3.42,3.42,0,0,1,140.22,51.12Z"/><path d="M135.16,56.89c.24,0,.47,0,.71,0A10.16,10.16,0,0,0,142.68,54l.25-.23-.06-.33a13.23,13.23,0,0,0-.69-2.25c-.72-1.81-2.1-4.17-4.56-4.91-2.71-.83-6,.55-9.76,4.07-.34.32-.68.65-1,1l-.38.39.34.41C126.93,52.37,130.34,56.51,135.16,56.89Zm5.4-6.31a11.37,11.37,0,0,1,.73,1.73,9.81,9.81,0,0,1,.32,1.06,11.45,11.45,0,0,1-1.24.93,8.7,8.7,0,0,0,.3-2.62A10,10,0,0,0,140.56,50.58Zm-11.29.15c2.4-2.13,4.52-3.28,6.35-3.43a4.73,4.73,0,0,1,1.65.16,5,5,0,0,1,2.4,1.75,1.08,1.08,0,0,1,.47.65l.21.35a6.63,6.63,0,0,1,0,1l-.12-.08a.62.62,0,0,0,0,.09s-.12.94-.69,1a2.86,2.86,0,0,1-.08,1.29c-.47,1.59-1.77,2-3.43,2.07-2.33.09-2.7-2-2.38-3.66s1.23-2.7,3.82-1.95a3.27,3.27,0,0,1,1,.49v-.06a.49.49,0,0,1,0-.12h0a11.67,11.67,0,0,0-4.85-.89s-1.77,3.75-.14,6a13.33,13.33,0,0,1-5.37-3.5C128.49,51.44,128.88,51.08,129.27,50.73Z"/><path class="v" d="M138,51.87a.58.58,0,1,0,.39.72A.58.58,0,0,0,138,51.87Z"/><path class="v" d="M138.44,50.38v.06c0,1.45.38,1.73,1,1.76h.07c.57-.05.69-1,.69-1a8.17,8.17,0,0,0-1.76-1A.49.49,0,0,0,138.44,50.38Z"/><path class="w" d="M138.45,50.26h0a8.17,8.17,0,0,1,1.76,1,.62.62,0,0,1,0-.09,3.42,3.42,0,0,0-.08-1.26,1.08,1.08,0,0,0-.47-.65.68.68,0,0,0-.26-.11C138.38,48.89,138.44,50.24,138.45,50.26Z"/><path class="d" d="M171.38,48a12.83,12.83,0,0,1,7.79,4.27c-2.19-3.69-9.54-13.62-19.18.31C163.86,49.08,167.68,47.54,171.38,48Z"/><path class="r" d="M169.76,57.87c-1-.79-2.23-2.58-1-6.43a26.92,26.92,0,0,0-6.33.64,25.67,25.67,0,0,0-2.64,2.29,23.25,23.25,0,0,0,6.37,2.89A17.32,17.32,0,0,0,169.76,57.87Z"/><path class="r" d="M177.34,56.11a14.75,14.75,0,0,0,2.17-1.53c-.14-.2-.33-.45-.56-.74s-.84-.46-1.35-.71A7.45,7.45,0,0,1,177.34,56.11Z"/><path class="s" d="M179,53.84a16.31,16.31,0,0,0-1.46-1.56c0,.22.08.51.11.85C178.11,53.38,178.57,53.63,179,53.84Z"/><path class="s" d="M168.78,51.44a4.74,4.74,0,0,1,1.62-2.33,12.77,12.77,0,0,0-8,3,26.92,26.92,0,0,1,6.33-.64Z"/><path class="t" d="M175.28,53.59C174,53.36,174,51.83,174,51.83v0a22.89,22.89,0,0,0-4.08-.36,4.65,4.65,0,0,0-.69,3,3.23,3.23,0,0,0,3.87,3.1c2.5-.28,3.67-1.14,3.8-3.24a3.93,3.93,0,0,0-.16-1.53A1.15,1.15,0,0,1,175.28,53.59Zm-1.32,1a.58.58,0,0,1-.58-.59.59.59,0,1,1,.58.59Z"/><path class="u" d="M168.78,51.44h1.16a22.89,22.89,0,0,1,4.08.36c0-.19.07-1.3.48-1.63a9.7,9.7,0,0,0-3.27-1,7.55,7.55,0,0,0-.83,0A4.74,4.74,0,0,0,168.78,51.44Z"/><path class="u" d="M176.79,52.65a4.24,4.24,0,0,1,.8.47,9.71,9.71,0,0,0-.23-1c-.21-.19-.43-.39-.67-.58A2.61,2.61,0,0,1,176.79,52.65Z"/><path class="v" d="M175.28,53.59a1.15,1.15,0,0,0,1.48-.8.39.39,0,0,0,0-.12,8.48,8.48,0,0,0-2.77-.84S174,53.36,175.28,53.59Z"/><path class="w" d="M174,51.79v0a8.48,8.48,0,0,1,2.77.84v0a2.61,2.61,0,0,0-.1-1.07,12.51,12.51,0,0,0-2.19-1.42C174.09,50.49,174,51.6,174,51.79Z"/><path d="M165.83,58.41a18.08,18.08,0,0,0,4.78.68,14.7,14.7,0,0,0,10.09-4l.37-.33-.26-.42a14.57,14.57,0,0,0-1.64-2.13A12.83,12.83,0,0,0,171.38,48c-3.7-.43-7.52,1.11-11.39,4.58-.51.46-1,1-1.54,1.48l-.48.49.55.41A23.31,23.31,0,0,0,165.83,58.41ZM179,53.84c.23.29.42.54.56.74a14.75,14.75,0,0,1-2.17,1.53,7.45,7.45,0,0,0,.26-3c0-.34-.07-.63-.11-.85A16.31,16.31,0,0,1,179,53.84Zm-16.5-1.76a12.77,12.77,0,0,1,8-3,7.55,7.55,0,0,1,.83,0,9.7,9.7,0,0,1,3.27,1,12.51,12.51,0,0,1,2.19,1.42c.24.19.46.39.67.58a9.71,9.71,0,0,1,.23,1,4.24,4.24,0,0,0-.8-.47v0a.39.39,0,0,1,0,.12,3.93,3.93,0,0,1,.16,1.53c-.13,2.1-1.3,3-3.8,3.24a3.23,3.23,0,0,1-3.87-3.1,4.65,4.65,0,0,1,.69-3h-1.16c-1.25,3.85,0,5.64,1,6.43a17.32,17.32,0,0,1-3.58-.61,23.25,23.25,0,0,1-6.37-2.89A25.67,25.67,0,0,1,162.45,52.08Z"/><path class="v" d="M174,53.41a.59.59,0,0,0-.59.58.58.58,0,0,0,.58.59.59.59,0,1,0,0-1.17Z"/><path class="i" d="M139.86,71.31a50,50,0,0,0,.17-5.38h0s-.71,6.23-3.35,6.69A3.18,3.18,0,0,0,139.86,71.31Z"/><path class="i" d="M137.06,73c.73.46,2.76,1.19,8.07.71a11.54,11.54,0,0,1-4.37-1.22A4.34,4.34,0,0,1,137.06,73Z"/><path class="g" d="M132.5,61.77a12.94,12.94,0,0,0,1.32,10.46,14.35,14.35,0,0,1,.54-11,3.19,3.19,0,0,1-.25-1.2c0-1.47,1.11-2.17,2.79-2.49l.62-.1.71-.07a6,6,0,0,0-.85,0A5,5,0,0,0,134,58.9,6.52,6.52,0,0,0,132.5,61.77Z"/><path class="g" d="M140,64.94c0,.25,0,.59,0,1a50,50,0,0,1-.17,5.38,3.18,3.18,0,0,1-3.18,1.31,3.6,3.6,0,0,1-.5-.16,2.92,2.92,0,0,0,.88.51,4.34,4.34,0,0,0,3.7-.51,11.54,11.54,0,0,0,4.37,1.22,9,9,0,0,0,5.94-1.62s-5.21,2.2-9.41-.4a1.5,1.5,0,0,1-.67-1,30,30,0,0,1-.34-5.7H140Z"/><path d="M139,57.51a.15.15,0,0,1,.07.26,3.69,3.69,0,0,1-3.2.54.15.15,0,0,1,0-.26,3.28,3.28,0,0,1,1.13-.47c-1.68.32-2.79,1-2.79,2.49a3.19,3.19,0,0,0,.25,1.2A6.7,6.7,0,0,0,140,64.94h.61c3.19-.1,5.62-2.58,5.74-4.81s-2.72-2.8-6.14-2.8c-.71,0-1.38,0-2,.07l-.71.07A7.82,7.82,0,0,1,139,57.51Zm4.53,3.61a3.83,3.83,0,0,1-3.95,3c-1.64-.19-3.67-1.3-3.94-3s1.78-2.23,3.95-2.23S143.83,59.5,143.48,61.12Z"/><path class="h" d="M138.25,41.78c2.06-.66,3.35-2.43,2.86-4s-2.56-2.22-4.62-1.56-3.35,2.43-2.87,3.95S136.18,42.44,138.25,41.78Z"/><path class="h" d="M168.42,42.55c2.75.51,5.2-.27,5.47-1.75s-1.74-3.08-4.49-3.59-5.2.27-5.47,1.75S165.66,42,168.42,42.55Z"/><path class="x" d="M135.59,61.12c.27,1.7,2.3,2.81,3.94,3a3.83,3.83,0,0,0,3.95-3c.35-1.62-1.76-2.23-3.94-2.23S135.34,59.48,135.59,61.12Z"/><path class="y" d="M135.82,58.31a3.69,3.69,0,0,0,3.2-.54.15.15,0,0,0-.07-.26,7.82,7.82,0,0,0-1.43,0l-.62.1a3.28,3.28,0,0,0-1.13.47A.15.15,0,0,0,135.82,58.31Z"/><path class="n" d="M152.11,98.66c0,.14-.18.49-.56.82a1.89,1.89,0,0,1-.77.44,9.25,9.25,0,0,0-1.49,2.77,4.53,4.53,0,0,1,.75-1.36,9.4,9.4,0,0,0-1.1,4.1,7.2,7.2,0,0,0,4.72,5.63,7.61,7.61,0,0,0,4.16-.2,4.69,4.69,0,0,1-1.28,0s2.59.36,5.19-3.26c1.57-2.17,1.13-4.89.65-6.5a7.22,7.22,0,0,0-4.56-3.69A8.11,8.11,0,0,0,152.11,98.66Zm9.72,5.65A5.83,5.83,0,1,1,156,98.48,5.84,5.84,0,0,1,161.83,104.31Z"/><path class="m" d="M161.73,107.59c-2.6,3.62-5.19,3.26-5.19,3.26a4.69,4.69,0,0,0,1.28,0,7.61,7.61,0,0,1-4.16.2,7.22,7.22,0,0,0,2.34.39,7.15,7.15,0,0,0,6.38-10.36C162.86,102.7,163.3,105.42,161.73,107.59Z"/><path class="z" d="M155.23,99.13l-1.46,2.6.62-.85-1.09,2-.65.69-1.51,2.74a5.5,5.5,0,0,0,.51,1c1,.59,4.19,2.13,7,.12a5.13,5.13,0,0,0,2-5.37,5.23,5.23,0,0,0-4.68-2.9A4.9,4.9,0,0,0,155.23,99.13Zm2.13,2.66a1.65,1.65,0,0,1,.66.57,2.45,2.45,0,0,1,.38.87,4.47,4.47,0,0,1,.12,1.06,4.31,4.31,0,0,1-.17,1.35,2.21,2.21,0,0,1-.49.8,1.51,1.51,0,0,1-.67.43,3,3,0,0,1-.88.15h-2.2v-5.43h2.2A2.29,2.29,0,0,1,157.36,101.79Z"/><path class="z" d="M156.61,105.67a.75.75,0,0,0,.31-.41,3,3,0,0,0,.11-.94,2,2,0,0,0-.25-1.18,1,1,0,0,0-.82-.32h-.37v3H156A1.33,1.33,0,0,0,156.61,105.67Z"/><path class="z" d="M153.86,99.53l-3.07,5.3a4.21,4.21,0,0,0,.12.71l3.65-6.27A5.89,5.89,0,0,0,153.86,99.53Z"/><path class="z" d="M151.05,102.6l.83-1.52A5.21,5.21,0,0,0,151.05,102.6Z"/><path class="p" d="M154.11,103.77V107h2.2a3,3,0,0,0,.88-.15,1.51,1.51,0,0,0,.67-.43,2.21,2.21,0,0,0,.49-.8,4.31,4.31,0,0,0,.17-1.35,4.47,4.47,0,0,0-.12-1.06,2.45,2.45,0,0,0-.38-.87,1.65,1.65,0,0,0-.66-.57,2.29,2.29,0,0,0-1.05-.2h-2.2Zm1.48,1.47v-2.42H156a1,1,0,0,1,.82.32,2,2,0,0,1,.25,1.18,3,3,0,0,1-.11.94.75.75,0,0,1-.31.41,1.33,1.33,0,0,1-.66.12h-.36Z"/><path class="o" d="M153.3,102.83l1.09-2-.62.85,1.46-2.6a5,5,0,0,0-.67.14l-3.65,6.27a5.5,5.5,0,0,0,.23.72l1.51-2.74Z"/><path class="o" d="M151.88,101.08l-.83,1.52a5.07,5.07,0,0,0-.29,1.71,4.41,4.41,0,0,0,0,.52l3.07-5.3A5.19,5.19,0,0,0,151.88,101.08Z"/><path class="m" d="M158.69,107.34c-2.85,2-6,.47-7-.12a5.23,5.23,0,0,0,9.59-2.91,5.11,5.11,0,0,0-.56-2.34A5.13,5.13,0,0,1,158.69,107.34Z"/><path class="aa" d="M148.85,104.31a8.32,8.32,0,0,0,.09,1.12,9.4,9.4,0,0,1,1.1-4.1,4.53,4.53,0,0,0-.75,1.36,9.25,9.25,0,0,1,1.49-2.77,1.89,1.89,0,0,0,.77-.44c.38-.33.61-.68.56-.82a8.11,8.11,0,0,1,5.71-1.26,7.26,7.26,0,0,0-1.82-.24A7.16,7.16,0,0,0,148.85,104.31Z"/><path class="p" d="M150.17,104.31A5.83,5.83,0,1,0,156,98.48,5.84,5.84,0,0,0,150.17,104.31ZM160.68,102a5.11,5.11,0,0,1,.56,2.34,5.23,5.23,0,0,1-9.59,2.91,5.15,5.15,0,0,1-.74-1.68,4.21,4.21,0,0,1-.12-.71,4.41,4.41,0,0,1,0-.52,5.07,5.07,0,0,1,.29-1.71,5.26,5.26,0,0,1,2.81-3.07,5.89,5.89,0,0,1,.7-.26,5,5,0,0,1,.67-.14,4.9,4.9,0,0,1,.77-.06A5.23,5.23,0,0,1,160.68,102Z"/><polygon class="ab" points="158.68 116 42.59 93.08 42.31 252.26 158.86 288.57 158.68 116"/><polygon class="ac" points="122.56 183.19 158.68 116 18.88 145.97 122.56 183.19"/><polygon class="ad" points="158.68 116 120.99 173.4 0 140.9 42.59 93.08 158.68 116"/><polygon class="ae" points="158.68 116 296.79 97.05 296.79 256.18 158.86 288.57 158.68 116"/><polygon class="af" points="296.79 160.36 193.38 183.19 158.68 116 296.79 148.57 296.79 160.36"/><polygon class="ag" points="296.79 97.05 353.58 139.34 197.35 173.4 158.68 116 296.79 97.05"/></svg>