<svg xmlns="http://www.w3.org/2000/svg" viewBox="0 0 201.49 417.63"><defs><style>.a{fill:#007aff;}.b{fill:#bfdeff;}.c{fill:#80bcff;}</style></defs><path class="a" d="M201.47,70.3V359.48c0,14.9-9.84,29.73-29.46,41.12-39.36,22.71-103.19,22.71-142.48,0C9.85,389.21,0,374.38,0,359.48V70.3Z"/><path class="b" d="M201.47,58.14V347.33c0,14.9-9.84,29.73-29.46,41.12-39.36,22.7-103.19,22.7-142.48,0C9.85,377.06,0,362.23,0,347.33V58.14Z"/><path class="a" d="M201.47,58.14V107.7c0,14.9-9.84,29.73-29.46,41.12-39.36,22.71-103.19,22.71-142.48,0C9.85,137.43,0,122.6,0,107.7V58.14Z"/><ellipse class="b" cx="100.75" cy="58.17" rx="100.75" ry="58.17"/><path class="a" d="M161.06,93c-33.31,19.23-87.31,19.23-120.62,0s-33.31-50.4,0-69.63,87.31-19.23,120.61,0S194.36,73.76,161.06,93Z"/><path class="a" d="M184,170.47V349.93a79.34,79.34,0,0,1-12,8.36c-11.24,6.47-24.53,11.11-38.66,13.92V192.75c14.13-2.81,27.42-7.38,38.66-13.91A79.37,79.37,0,0,0,184,170.47Z"/><path class="a" d="M108.12,195.64V375.09c-28.19,1.27-57.08-4.35-78.59-16.8C9.85,346.91,0,332.07,0,317.17V137.72c0,14.9,9.84,29.73,29.52,41.12C51,191.28,79.93,196.9,108.12,195.64Z"/><path class="b" d="M29.53,195.2a11.58,11.58,0,0,0,1.41.78v75.36a13,13,0,0,1-1.41-.77,82.1,82.1,0,0,1-13.71-9.84V185.36A81.53,81.53,0,0,0,29.53,195.2Z"/><path class="b" d="M86.75,211.59V349.72a149.89,149.89,0,0,1-40.7-8.65V203A149.51,149.51,0,0,0,86.75,211.59Z"/><path class="c" d="M124.34,46V57.64c0,3.49-2.3,7-6.9,9.64-9.22,5.31-24.17,5.31-33.38,0-4.61-2.67-6.91-6.15-6.91-9.64V46Z"/><path class="b" d="M117.44,55.67c-9.22,5.32-24.17,5.32-33.38,0s-9.22-14,0-19.27,24.16-5.32,33.38,0S126.65,50.35,117.44,55.67Z"/><polygon class="b" points="113.01 136.17 104.15 136.17 104.15 127.32 97.32 127.32 97.32 136.17 88.47 136.17 88.47 143 97.32 143 97.32 151.86 104.15 151.86 104.15 143 113.01 143 113.01 136.17"/></svg>